<svg xmlns="http://www.w3.org/2000/svg" width="1280" height="780" viewBox="0 0 1280 780" font-family="Segoe UI, Arial, sans-serif">
  <defs>
    <radialGradient id="bgA" cx="50%" cy="30%" r="85%">
      <stop offset="0%" stop-color="#16302444"/><stop offset="0%" stop-color="#163024"/><stop offset="100%" stop-color="#0c1812"/>
    </radialGradient>
  </defs>
  <rect width="1280" height="780" fill="url(#bgA)"/>

  <text x="48" y="60" fill="#2bb8a3" font-size="38" font-weight="800">ALT A — "BRUME D'ÉMERAUDE"</text>
  <text x="48" y="90" fill="#d8e8df" font-size="17">Forêt-monde mystique · cosy · brume &amp; bioluminescence · fae/esprits · idéal identité métiers + co-op</text>
  <line x1="48" y1="106" x2="1232" y2="106" stroke="#14241d" stroke-width="2"/>

  <!-- palette -->
  <text x="48" y="146" fill="#d8e8df" font-size="20" font-weight="700">Palette</text>
  <g transform="translate(48,162)" font-size="12" font-weight="700" text-anchor="middle">
    <g><rect width="118" height="80" rx="10" fill="#2e9e6b" stroke="#14241d" stroke-width="3"/><text x="59" y="44" fill="#0c1812">ÉMERAUDE</text><text x="59" y="62" fill="#0c1812">#2e9e6b</text></g>
    <g transform="translate(132,0)"><rect width="118" height="80" rx="10" fill="#6aa84f" stroke="#14241d" stroke-width="3"/><text x="59" y="44" fill="#0c1812">MOUSSE</text><text x="59" y="62" fill="#0c1812">#6aa84f</text></g>
    <g transform="translate(264,0)"><rect width="118" height="80" rx="10" fill="#2bb8a3" stroke="#14241d" stroke-width="3"/><text x="59" y="44" fill="#0c1812">TEAL</text><text x="59" y="62" fill="#0c1812">#2bb8a3</text></g>
    <g transform="translate(396,0)"><rect width="118" height="80" rx="10" fill="#c64b9c" stroke="#14241d" stroke-width="3"/><text x="59" y="44" fill="#0c1812">MAGIE</text><text x="59" y="62" fill="#0c1812">#c64b9c</text></g>
    <g transform="translate(528,0)"><rect width="118" height="80" rx="10" fill="#7a5cc4" stroke="#14241d" stroke-width="3"/><text x="59" y="44" fill="#fff">VIOLET</text><text x="59" y="62" fill="#fff">#7a5cc4</text></g>
    <g transform="translate(660,0)"><rect width="118" height="80" rx="10" fill="#e8c24e" stroke="#14241d" stroke-width="3"/><text x="59" y="44" fill="#0c1812">OR/LOOT</text><text x="59" y="62" fill="#0c1812">#e8c24e</text></g>
    <g transform="translate(792,0)"><rect width="118" height="80" rx="10" fill="#d8e8df" stroke="#14241d" stroke-width="3"/><text x="59" y="44" fill="#0c1812">BRUME</text><text x="59" y="62" fill="#0c1812">#d8e8df</text></g>
    <g transform="translate(924,0)"><rect width="118" height="80" rx="10" fill="#14241d" stroke="#3a5a48" stroke-width="3"/><text x="59" y="44" fill="#d8e8df">OUTLINE</text><text x="59" y="62" fill="#d8e8df">#14241d</text></g>
  </g>
  <text x="48" y="272" fill="#7fa792" font-size="13">Monde = verts profonds + brume claire. Magenta/violet = magie &amp; bioluminescence (feedback skill). Or = loot/récolte. Ambiance chaleureuse, lisible.</text>

  <!-- base char -->
  <text x="48" y="318" fill="#d8e8df" font-size="20" font-weight="700">Perso — base</text>
  <g transform="translate(120,344)">
    <circle cx="60" cy="92" r="0"/>
    <ellipse cx="60" cy="232" rx="50" ry="15" fill="#000" opacity="0.3"/>
    <path d="M22 150 Q22 120 60 116 Q98 120 98 150 L104 224 Q60 236 16 224 Z" fill="#2e9e6b" stroke="#14241d" stroke-width="4"/>
    <path d="M60 118 Q98 122 98 150 L104 224 Q82 230 60 230 Z" fill="#000" opacity="0.13"/>
    <rect x="20" y="178" width="80" height="14" rx="6" fill="#c64b9c" stroke="#14241d" stroke-width="3"/>
    <circle cx="14" cy="170" r="14" fill="#26865a" stroke="#14241d" stroke-width="4"/>
    <circle cx="106" cy="170" r="14" fill="#26865a" stroke="#14241d" stroke-width="4"/>
    <circle cx="60" cy="92" r="40" fill="#cdb79a" stroke="#14241d" stroke-width="4"/>
    <path d="M22 86 Q24 50 60 48 Q96 50 98 86 Q80 64 60 64 Q40 64 22 86 Z" fill="#3a5a3a"/>
    <!-- leaf tuft -->
    <path d="M60 50 Q52 30 64 22 Q70 34 60 50 Z" fill="#6aa84f" stroke="#14241d" stroke-width="2"/>
    <circle cx="48" cy="96" r="4" fill="#14241d"/><circle cx="72" cy="96" r="4" fill="#14241d"/>
    <!-- bioluminescent dots -->
    <circle cx="105" cy="206" r="3" fill="#2bb8a3"/><circle cx="18" cy="200" r="3" fill="#2bb8a3"/>
  </g>
  <g font-size="13" fill="#7fa792">
    <text x="280" y="372" fill="#d8e8df" font-weight="700" font-size="14">Pourquoi cette DA</text>
    <text x="280" y="396">· Cosy-mystique → colle aux boucles récolte/craft (l'esprit Dofus en forêt-monde)</text>
    <text x="280" y="418">· Bioluminescence = skins à "glow" très vendeurs (auras, traînées, motifs lumineux)</text>
    <text x="280" y="440">· Verts dominants = repos visuel sur longues sessions de farm</text>
    <text x="280" y="462" fill="#c64b9c">· Risque : moins "punchy" en arène PvP que des terres chaudes — magie magenta compense</text>
    <text x="280" y="484">· Réfs d'ambiance : Hollow-Knight-meets-Ori (sans le pixel), bestiaire fae/champignons</text>
  </g>

  <!-- skins -->
  <text x="48" y="556" fill="#d8e8df" font-size="20" font-weight="700">Skins (palette-swap, même silhouette)</text>
  <g transform="translate(120,576)">
    <ellipse cx="50" cy="174" rx="42" ry="12" fill="#000" opacity="0.3"/>
    <path d="M18 116 Q18 92 50 89 Q82 92 82 116 L87 172 Q50 182 13 172 Z" fill="#2e9e6b" stroke="#14241d" stroke-width="4"/>
    <rect x="16" y="138" width="68" height="12" rx="5" fill="#c64b9c" stroke="#14241d" stroke-width="3"/>
    <circle cx="50" cy="70" r="32" fill="#cdb79a" stroke="#14241d" stroke-width="4"/>
    <path d="M18 66 Q20 36 50 34 Q80 36 82 66 Q66 48 50 48 Q34 48 18 66 Z" fill="#3a5a3a"/>
    <text x="50" y="204" fill="#d8e8df" font-size="13" text-anchor="middle">"Sylve" (base)</text>
  </g>
  <g transform="translate(320,576)">
    <ellipse cx="50" cy="174" rx="42" ry="12" fill="#000" opacity="0.3"/>
    <path d="M18 116 Q18 92 50 89 Q82 92 82 116 L87 172 Q50 182 13 172 Z" fill="#7a5cc4" stroke="#14241d" stroke-width="4"/>
    <rect x="16" y="138" width="68" height="12" rx="5" fill="#2bb8a3" stroke="#14241d" stroke-width="3"/>
    <circle cx="50" cy="70" r="32" fill="#e3d2bb" stroke="#14241d" stroke-width="4"/>
    <path d="M18 66 Q20 36 50 34 Q80 36 82 66 Q66 48 50 48 Q34 48 18 66 Z" fill="#2a1f44"/>
    <text x="50" y="204" fill="#d8e8df" font-size="13" text-anchor="middle">"Améthyste"</text>
  </g>
  <g transform="translate(520,576)">
    <ellipse cx="50" cy="174" rx="42" ry="12" fill="#000" opacity="0.3"/>
    <path d="M18 116 Q18 92 50 89 Q82 92 82 116 L87 172 Q50 182 13 172 Z" fill="#e8c24e" stroke="#14241d" stroke-width="4"/>
    <rect x="16" y="138" width="68" height="12" rx="5" fill="#2e9e6b" stroke="#14241d" stroke-width="3"/>
    <circle cx="50" cy="70" r="32" fill="#cdb79a" stroke="#14241d" stroke-width="4"/>
    <path d="M18 66 Q20 36 50 34 Q80 36 82 66 Q66 48 50 48 Q34 48 18 66 Z" fill="#7a5a28"/>
    <text x="50" y="204" fill="#d8e8df" font-size="13" text-anchor="middle">"Pollen d'or"</text>
  </g>
  <!-- glow skin sample -->
  <g transform="translate(720,576)">
    <ellipse cx="50" cy="174" rx="42" ry="12" fill="#000" opacity="0.3"/>
    <circle cx="50" cy="120" r="62" fill="#2bb8a3" opacity="0.16"/>
    <path d="M18 116 Q18 92 50 89 Q82 92 82 116 L87 172 Q50 182 13 172 Z" fill="#1f6e62" stroke="#2bb8a3" stroke-width="4"/>
    <rect x="16" y="138" width="68" height="12" rx="5" fill="#c64b9c" stroke="#14241d" stroke-width="3"/>
    <circle cx="50" cy="70" r="32" fill="#cdb79a" stroke="#2bb8a3" stroke-width="4"/>
    <path d="M18 66 Q20 36 50 34 Q80 36 82 66 Q66 48 50 48 Q34 48 18 66 Z" fill="#123a32"/>
    <text x="92" y="50" font-size="18" fill="#2bb8a3">✦</text><text x="0" y="96" font-size="14" fill="#c64b9c">✦</text>
    <text x="50" y="204" fill="#2bb8a3" font-size="13" text-anchor="middle" font-weight="700">"Luciole" (glow)</text>
  </g>
  <text x="940" y="660" fill="#7fa792" font-size="13" text-anchor="middle">Mockup vectoriel —</text>
  <text x="940" y="680" fill="#7fa792" font-size="13" text-anchor="middle">direction, pas l'art final.</text>
</svg>
